<?xml version="1.0" encoding="UTF-8" standalone="no"?>
<!-- Created with Inkscape (http://www.inkscape.org/) -->

<svg
   version="1.1"
   id="svg1"
   width="1599.9999"
   height="282.02271"
   viewBox="0 0 1599.9999 282.02271"
   xmlns="http://www.w3.org/2000/svg"
   xmlns:svg="http://www.w3.org/2000/svg">
  <defs
     id="defs1">
    <clipPath
       clipPathUnits="userSpaceOnUse"
       id="clipPath8">
      <path
         d="M 0,6530 H 12000 V 0 H 0 Z"
         id="path8" />
    </clipPath>
  </defs>
  <g
     id="g1"
     transform="translate(-1.816118,-531.59821)">
    <path
       id="path7"
       d="m 11942,2050.3 c -218.3,0 -396.9,-91.8 -482,-246.5 -195.3,190.1 -493.5,305.06 -814.8,311.12 -9,0.15 -18,0.25 -26.9,0.25 -575.3,0 -1032.41,-339.37 -1040.56,-772.67 -0.86,-47.7 4.1,-96 14.76,-143.9 -0.68,-10.3 -1.15,-20.4 -1.48,-30.5 -27.32,3.7 -55.03,5.6 -82.89,5.6 -314.05,0 -612.42,-230.501 -694.05,-536.098 -35.96,-134.801 -30.27,-278.403 9.51,-414.301 -76.79,38.101 -160.46,67.801 -248.62,87.101 -89.26,19.5 -179.32,27.797 -267.7,24.7 C 7960.05,323 7688.1,138 7630.57,-125.098 c -8,-36.601 -11.66,-74.5 -10.92,-113.004 -0.84,-3.199 -1.66,-6.398 -2.46,-9.597 -54.19,17.199 -111.69,24.801 -171.67,22.801 -82.88,-2.903 -164.44,-24.602 -238.41,-61 l -1.3,1.097 c -42.36,44 -90.6,75.301 -143.48,93 -76.07,39.903 -157.83,69.301 -243.66,87.903 22.27,243.199 -156.53,511 -443.62,653.296 -126.17,62.5 -261.78,95.602 -392.23,95.602 -218.31,0 -396.96,-91.801 -482.01,-246.5 -195.34,190.102 -493.49,305.102 -814.82,311.102 -9.02,0.199 -17.99,0.3 -26.93,0.3 -76.93,0 -151.73,-6.203 -223.64,-17.703 -55.16,108.602 -135.07,206.5 -235.9,286 -42.37,44.001 -90.6,75.301 -143.48,93.001 -76.07,39.9 -157.83,69.3 -243.66,87.9 22.26,243.2 -156.54,511 -443.62,653.3 -126.17,62.5 -261.78,95.6 -392.24,95.6 -218.31,0 -396.96,-91.8 -482,-246.5 -195.34,190.1 -493.49,305.1 -814.82,311.1 -9.03,0.2 -17.99,0.3 -26.93,0.3 -3.27,0 -6.5,-0.2 -9.75,-0.2 -3.26,0 -6.48,0.2 -9.75,0.2 -8.94,0 -17.91,-0.1 -26.93,-0.3 -321.33,-6 -619.481,-121 -814.817,-311.1 C 706.477,1816.2 527.824,1908 309.512,1908 179.059,1908 43.4531,1874.9 -82.7148,1812.4 -369.801,1670.1 -548.605,1402.3 -526.332,1159.1 c -85.84,-18.6 -167.598,-48 -243.668,-87.9 -52.883,-17.7 -101.109,-49 -143.48,-93.001 -100.83,-79.5 -180.74,-177.398 -235.89,-286 -71.92,11.5 -146.72,17.703 -223.65,17.703 -8.94,0 -17.91,-0.101 -26.93,-0.3 -321.33,-6 -619.48,-121 -814.82,-311.102 -85.05,154.699 -263.7,246.5 -482.01,246.5 -123.13,0 -250.85,-29.5 -370.89,-85.398 V -1282.5 h 4421.1 579.17 10094.1 v 3328.16 c -28.4,3.02 -56.6,4.64 -84.7,4.64"
       style="fill:#ffffff;fill-opacity:1;fill-rule:nonzero;stroke:none"
       transform="matrix(0.13333333,0,0,-0.13333333,1.816118,813.62089)"
       clip-path="url(#clipPath8)" />
  </g>
</svg>
