<?xml version="1.0" encoding="UTF-8" standalone="no"?>
<!-- Created with Inkscape (http://www.inkscape.org/) -->

<svg
   version="1.1"
   id="svg1"
   width="105.48743"
   height="67.055664"
   viewBox="0 0 105.48743 67.055664"
   xmlns="http://www.w3.org/2000/svg"
   xmlns:svg="http://www.w3.org/2000/svg">
  <defs
     id="defs1">
    <clipPath
       clipPathUnits="userSpaceOnUse"
       id="clipPath6411">
      <path
         d="M 6415.02,1090.1 H 10915 v 4500 H 6415.02 Z"
         id="path6411" />
    </clipPath>
  </defs>
  <g
     id="g1"
     transform="translate(-1041.007,-1200.7694)">
    <path
       id="path6410"
       d="m 9645.33,1786.1 c -5.02,-1 -10.12,-1.7 -15.17,-2.3 -71.65,-7.2 -141.37,36.6 -160.88,99 -14.18,-6.9 -29.32,-11.9 -45.13,-15 -41.89,-8 -83.46,-1.2 -117.03,19.2 -53.28,32.3 -81.09,99.5 -64.68,156.3 12.34,42.71 50.76,77.17 95.62,85.76 12.61,2.41 25.06,2.64 37.11,0.69 0.09,1.83 0.21,3.69 0.38,5.57 -1.64,8.11 -2.32,16.26 -2.01,24.26 2.3,58.77 54.32,107.92 129.47,122.3 17.07,3.28 34.78,4.58 52.66,3.88 54.24,-2.12 104.15,-22.59 136.35,-55.44 11.16,19.67 31.37,33.17 57.21,38.12 28.7,5.49 60.81,0.04 90.38,-15.38 47.9,-24.96 77.06,-70.72 72.3,-111.57 14.49,-3.39 28.26,-8.66 41.03,-15.7 8.8,-3.14 16.79,-8.55 23.76,-16.08 33,-27.08 52,-65.9 52.2,-106.61 0.3,-68.2 -51.86,-127.7 -124.06,-141.5 -10.12,-1.9 -20.54,-2.9 -30.96,-3 -32.66,-0.2 -63.61,8.8 -90.06,25.9 -34.45,-52.4 -84.52,-88.1 -138.49,-98.4"
       style="fill:#ffffff;fill-opacity:1;fill-rule:nonzero;stroke:none"
       transform="matrix(0.13333333,0,0,-0.13333333,-190.6924,1505.5619)"
       clip-path="url(#clipPath6411)" />
  </g>
</svg>
