<?xml version="1.0" encoding="iso-8859-1"?>
<!-- Uploaded to: SVG Repo, www.svgrepo.com, Generator: SVG Repo Mixer Tools -->
<svg height="800px" width="800px" version="1.1" id="Layer_1" xmlns="http://www.w3.org/2000/svg" xmlns:xlink="http://www.w3.org/1999/xlink" 
	 viewBox="0 0 512 512" xml:space="preserve">
<g>
	<path style="fill:#F7B239;" d="M256.003,232.495v117.749h-51.21l-0.012-0.06c-0.428-2.452-0.94-4.891-1.523-7.307L180.23,232.495
		C201.568,212.572,234.665,212.572,256.003,232.495z"/>
	<path style="fill:#F7B239;" d="M394.043,223.176c-10.104,22.207-25.397,41.546-44.343,56.47
		c-20.137,15.852-34.537,37.738-40.749,62.397l22.85-109.549C349.01,216.44,373.883,213.334,394.043,223.176z"/>
	<path style="fill:#F7B239;" d="M331.801,232.495l-22.85,109.549c-0.69,2.702-1.273,5.427-1.749,8.188v0.012h-51.198V232.495h0.012
		c21.339-19.922,54.435-19.922,75.774,0H331.801z"/>
</g>
<g>
	<path style="fill:#F95428;" d="M340.013,34.319c13.77,9.188,25.932,20.553,36.013,33.608
		c-29.883,30.74-71.68,49.841-117.927,49.841c-47.39,0-90.091-20.041-120.093-52.115c10.354-12.829,22.743-23.957,36.667-32.871
		c20.982,22.017,50.603,35.751,83.426,35.751C290.148,68.534,319.138,55.443,340.013,34.319z"/>
	<path style="fill:#F95428;" d="M407.575,160.315c0,0.06,0,0.131,0,0.19c0,22.35-4.844,43.582-13.531,62.671
		c-20.16-9.842-45.033-6.736-62.242,9.319h-0.012c-21.339-19.922-54.435-19.922-75.774,0h-0.012
		c-21.339-19.922-54.435-19.922-75.774,0h-0.012l-0.012-0.012c-17.221-16.054-42.07-19.161-62.242-9.307l0.036,0.083
		c-8.747-19.173-13.603-40.487-13.579-62.945L407.575,160.315L407.575,160.315z"/>
</g>
<g>
	<path style="fill:#E54728;" d="M138.005,65.654c10.354-12.829,22.743-23.957,36.667-32.871c7.498,7.867,16.09,14.674,25.551,20.172
		c-2.118,4.011-4.13,8.247-6.01,12.698c-4.368,10.366-8.045,21.826-10.889,34.156C166.282,91.098,150.965,79.495,138.005,65.654z"/>
	<path style="fill:#E54728;" d="M185.05,228.472c-1.666,1.238-3.273,2.583-4.82,4.023h-0.012l-0.012-0.012
		c-17.221-16.054-42.07-19.161-62.242-9.307c-8.723-19.149-13.567-40.44-13.543-62.861h72.215
		c-0.012,22.457,2.523,43.772,7.105,62.945C184.157,225.021,184.597,226.758,185.05,228.472z"/>
</g>
<path style="fill:#2BA5F7;" d="M340.013,34.319c-20.874,21.124-49.865,34.215-81.915,34.215c-32.823,0-62.445-13.734-83.426-35.751
	c24.1-15.436,52.793-24.254,83.426-23.838C288.374,9.35,316.508,18.645,340.013,34.319z"/>
<path style="fill:#F7B239;" d="M407.575,160.315H104.42c0.048-35.774,12.651-68.705,33.585-94.661
	c30.002,32.073,72.703,52.115,120.093,52.115c46.247,0,88.044-19.101,117.927-49.841
	C395.769,93.491,407.527,125.528,407.575,160.315z"/>
<path style="fill:#E09B2D;" d="M183.324,99.81c-4.284,18.542-6.676,39.012-6.688,60.505H104.42
	c0.048-35.774,12.651-68.705,33.585-94.661C150.965,79.495,166.282,91.098,183.324,99.81z"/>
<path style="fill:#2197D8;" d="M256.003,8.934c-15.638,0-30.252,8.759-42.594,23.85c-4.76,5.82-9.176,12.591-13.186,20.172
	c-9.461-5.498-18.054-12.306-25.551-20.172C198.212,17.693,226.156,8.934,256.003,8.934z"/>
<path style="fill:#E09B2D;" d="M315.223,311.946c-22.595,0-42.801-4.039-59.448-9.236c-34.555-10.788-61.272-38.644-70.565-73.63
	c-0.054-0.202-0.107-0.405-0.161-0.607c-1.666,1.238-3.273,2.583-4.82,4.023h-0.012l-0.012-0.012
	c-17.221-16.054-42.07-19.161-62.242-9.307c0,0.001,0,0.001-0.001,0.002c9.521,20.961,23.693,39.357,41.184,53.909
	c0.093,0.076,0.182,0.157,0.275,0.234c1.177,0.975,2.369,1.933,3.576,2.872c20.208,15.721,34.275,37.929,40.261,62.683
	c0.583,2.416,1.095,4.856,1.523,7.307l0.012,0.06h24.397h78.011v-0.012c0.476-2.761,1.059-5.486,1.749-8.188
	c2.654-10.509,6.784-20.529,12.222-29.776C319.341,312.053,317.353,311.946,315.223,311.946z"/>
<polygon style="fill:#2BA5F7;" points="316.663,447.499 307.154,503.076 205.519,503.076 195.999,447.499 225.085,447.499 
	256.003,447.499 286.946,447.499 315.997,447.499 "/>
<polygon style="fill:#2197D8;" points="225.169,447.499 195.999,447.499 205.547,503.076 243.507,503.076 243.35,447.499 "/>
<path style="fill:#333333;" d="M404.305,222.1c7.973-19.22,12.199-40.076,12.199-61.597c0-42.485-16.438-82.532-46.285-112.762
	C340.398,17.538,300.623,0.59,258.216,0.015C215.144-0.572,174.385,15.88,143.48,46.33c-30.89,30.437-47.93,70.912-47.984,113.971
	c-0.026,21.611,4.193,42.53,12.182,61.8c0.721,1.739,79.089,226.018,79.089,226.018c0.02,0.295,9.615,56.461,9.615,56.461
	c0.734,4.286,4.45,7.419,8.798,7.419h101.636c4.349,0,8.064-3.134,8.798-7.419c0,0,9.595-56.164,9.615-56.458
	C325.231,448.122,403.617,223.759,404.305,222.1z M264.926,438.572v-79.408h31.332l-16.567,79.408H264.926z M232.342,438.572
	l-16.566-79.408h31.299v79.408H232.342z M138.94,79.222c32.036,30.28,74.884,47.47,119.158,47.47
	c43.691,0,84.738-15.977,116.72-45.189c13.839,20.729,21.955,44.692,23.537,69.884H113.646
	C115.299,125.273,124.034,100.496,138.94,79.222z M398.383,169.239c-0.885,14.719-3.998,29.002-9.147,42.441
	c-19.405-6.13-40.903-2.693-57.431,9.272c-22.48-16.338-53.312-16.339-75.794-0.006c-22.482-16.333-53.313-16.332-75.794,0.005
	c-16.541-11.976-38.055-15.413-57.462-9.27c-5.145-13.434-8.255-27.714-9.138-42.443H398.383z M172.111,237.278l10.099,48.407
	c-4.233-4.499-8.808-8.704-13.735-12.539c-16.022-12.466-28.905-27.821-38.183-45.047
	C144.722,224.279,160.45,227.602,172.111,237.278z M190.056,235.885c16.829-12.694,40.438-12.457,57.018,0.701v104.727h-35.003
	c-0.031-0.132-0.07-0.262-0.102-0.395L190.056,235.885z M299.936,341.313h-35.01v-104.71c16.586-13.177,40.214-13.415,57.05-0.709
	l-21.813,104.554C300.091,340.737,300.005,341.022,299.936,341.313z M339.931,237.236c11.644-9.647,27.36-12.973,41.777-9.166
	c-9.154,17.005-21.816,32.192-37.532,44.568c-5.182,4.08-9.98,8.532-14.401,13.279L339.931,237.236z M257.974,17.866
	c23.912,0.324,46.879,6.515,67.247,17.848c-18.902,15.473-42.34,23.894-67.123,23.894c-25.537,0-49.538-8.865-68.693-25.167
	C210.302,23.292,233.722,17.532,257.974,17.866z M173.596,44.255c23.021,21.464,52.742,33.204,84.501,33.204
	c30.884,0,59.988-11.186,82.768-31.64c5.859,4.353,11.429,9.176,16.65,14.465c2.234,2.262,4.375,4.591,6.438,6.973
	c-28.853,26.876-66.14,41.585-105.855,41.585c-40.846,0-78.892-15.427-107.996-43.612c1.903-2.106,3.867-4.171,5.908-6.181
	C161.534,53.603,167.418,48.671,173.596,44.255z M202.347,438.572l-55.95-160.815c3.541,3.3,7.244,6.467,11.116,9.479
	c18.636,14.5,31.652,34.977,37.155,58.159l19.439,93.177H202.347z M299.29,494.148h-86.581l-6.457-37.725h99.496L299.29,494.148z
	 M297.926,438.572l19.575-93.822c5.611-22.765,18.806-43.195,37.719-58.087c3.608-2.841,7.072-5.815,10.391-8.909l-55.959,160.817
	H297.926z"/>
</svg>